{
  "accessors": [
    {
      "bufferView": 0,
      "componentType": 5125,
      "type": "SCALAR",
      "count": 11743296
    },
    {
      "bufferView": 1,
      "componentType": 5126,
      "type": "VEC3",
      "count": 3501303,
      "min": [-0.500116527, -0.435111225, -0.206722081],
      "max": [0.500128865, 0.437362432, 0.207244784]
    },
    {
      "bufferView": 2,
      "componentType": 5126,
      "type": "VEC3",
      "count": 3501303
    },
    {
      "bufferView": 3,
      "componentType": 5126,
      "type": "VEC2",
      "count": 3501303
    }
  ],
  "asset": {
    "generator": "trellis2.c",
    "version": "2.0"
  },
  "bufferViews": [
    {
      "buffer": 0,
      "byteLength": 46973184
    },
    {
      "buffer": 0,
      "byteLength": 42015636,
      "byteOffset": 46973184,
      "byteStride": 12
    },
    {
      "buffer": 0,
      "byteLength": 42015636,
      "byteOffset": 88988820,
      "byteStride": 12
    },
    {
      "buffer": 0,
      "byteLength": 28010424,
      "byteOffset": 131004456,
      "byteStride": 8
    }
  ],
  "buffers": [
    {
      "uri": "trellis_viewer_output.bin",
      "byteLength": 159014880
    }
  ],
  "images": [
    {
      "uri": "trellis_viewer_output_baseColor.png"
    },
    {
      "uri": "trellis_viewer_output_metallicRoughness.png"
    }
  ],
  "meshes": [
    {
      "name": "trellis_mesh",
      "primitives": [
        {
          "indices": 0,
          "material": 0,
          "attributes": {
            "POSITION": 1,
            "NORMAL": 2,
            "TEXCOORD_0": 3
          }
        }
      ]
    }
  ],
  "materials": [
    {
      "name": "trellis_pbr",
      "doubleSided": true,
      "pbrMetallicRoughness": {
        "baseColorTexture": {
          "index": 0
        },
        "metallicRoughnessTexture": {
          "index": 1
        }
      }
    }
  ],
  "nodes": [
    {
      "mesh": 0,
      "name": "trellis"
    }
  ],
  "samplers": [
    {
      "magFilter": 9729,
      "minFilter": 9729,
      "wrapS": 33071,
      "wrapT": 33071
    }
  ],
  "scene": 0,
  "scenes": [
    {
      "name": "Scene",
      "nodes": [ 0 ]
    }
  ],
  "textures": [
    {
      "source": 0,
      "sampler": 0
    },
    {
      "source": 1,
      "sampler": 0
    }
  ]
}
